<svg width="20" height="22" viewBox="0 0 20 22" fill="none" xmlns="http://www.w3.org/2000/svg">
<path d="M13.9685 7.87211C14.4643 7.87211 14.8662 7.46129 14.8662 6.95452C14.8662 6.44774 14.4643 6.03692 13.9685 6.03692C13.4726 6.03692 13.0707 6.44774 13.0707 6.95452C13.0707 7.46129 13.4726 7.87211 13.9685 7.87211Z" fill="white"/>
<path d="M9.97495 7.10962C9.21512 7.10962 8.47235 7.33991 7.84057 7.77138C7.2088 8.20285 6.71639 8.81611 6.42562 9.53362C6.13484 10.2511 6.05876 11.0407 6.207 11.8024C6.35523 12.5641 6.72113 13.2637 7.25841 13.8129C7.79569 14.362 8.48023 14.736 9.22546 14.8875C9.97069 15.039 10.7431 14.9613 11.4451 14.6641C12.1471 14.3669 12.7471 13.8636 13.1693 13.2178C13.5914 12.5721 13.8167 11.8129 13.8167 11.0363C13.8167 9.99488 13.412 8.99611 12.6915 8.25971C11.971 7.52332 10.9938 7.10962 9.97495 7.10962ZM9.97495 13.5852C9.48173 13.5852 8.99958 13.4357 8.58949 13.1556C8.17939 12.8755 7.85976 12.4775 7.67101 12.0117C7.48226 11.546 7.43288 11.0335 7.5291 10.539C7.62532 10.0446 7.86283 9.59043 8.21159 9.23396C8.56035 8.8775 9.0047 8.63474 9.48844 8.53639C9.97218 8.43804 10.4736 8.48852 10.9293 8.68144C11.3849 8.87435 11.7744 9.20105 12.0484 9.62021C12.3225 10.0394 12.4687 10.5322 12.4687 11.0363C12.4687 11.7123 12.206 12.3606 11.7383 12.8386C11.2706 13.3166 10.6363 13.5852 9.97495 13.5852Z" fill="white"/>
<path d="M9.97495 4.76745C11.9725 4.76745 12.2092 4.77522 12.998 4.81205C13.4724 4.81782 13.9423 4.90689 14.3872 5.07535C14.7099 5.2026 15.0029 5.39745 15.2474 5.64738C15.4919 5.89732 15.6826 6.1968 15.8071 6.52656C15.9719 6.98129 16.059 7.46158 16.0647 7.94648C16.1006 8.75275 16.1083 8.99464 16.1083 11.0364C16.1083 13.0781 16.1007 13.32 16.0647 14.1262C16.059 14.6111 15.9719 15.0914 15.8071 15.5462C15.6826 15.8759 15.4919 16.1754 15.2474 16.4253C15.0029 16.6753 14.7099 16.8701 14.3872 16.9974C13.9423 17.1658 13.4724 17.2549 12.998 17.2607C12.2092 17.2974 11.9727 17.3053 9.97495 17.3053C7.97719 17.3053 7.74066 17.2975 6.95188 17.2607C6.47747 17.2549 6.00756 17.1658 5.56267 16.9974C5.24004 16.8701 4.94703 16.6753 4.7025 16.4253C4.45798 16.1754 4.26733 15.8759 4.14284 15.5462C3.97802 15.0914 3.89088 14.6111 3.88524 14.1262C3.84926 13.32 3.84159 13.0781 3.84159 11.0364C3.84159 8.99464 3.8492 8.75275 3.88524 7.94648C3.89088 7.46158 3.97802 6.98129 4.14284 6.52656C4.26733 6.19678 4.45796 5.89729 4.70249 5.64735C4.94702 5.3974 5.24003 5.20254 5.56267 5.07529C6.00756 4.90682 6.47747 4.81776 6.95188 4.81199C7.74072 4.77522 7.97738 4.76745 9.97495 4.76745ZM9.97495 3.38965C7.94315 3.38965 7.68835 3.39844 6.89041 3.43566C6.26987 3.44839 5.65593 3.56857 5.0747 3.7911C4.57765 3.98756 4.12624 4.288 3.74941 4.67316C3.37258 5.05832 3.07864 5.51971 2.88642 6.02774C2.66867 6.62192 2.55109 7.24954 2.53866 7.8839C2.50226 8.69916 2.49365 8.95959 2.49365 11.0363C2.49365 13.113 2.50226 13.3734 2.53866 14.189C2.5511 14.8234 2.66868 15.451 2.88642 16.0452C3.07864 16.5532 3.37258 17.0146 3.74941 17.3997C4.12624 17.7849 4.57765 18.0854 5.0747 18.2818C5.65603 18.5044 6.27008 18.6246 6.89072 18.6373C7.68835 18.6742 7.94315 18.6829 9.97495 18.6829C12.0067 18.6829 12.2615 18.6742 13.0595 18.6369C13.6801 18.6242 14.2942 18.504 14.8755 18.2815C15.3726 18.085 15.824 17.7846 16.2008 17.3994C16.5776 17.0143 16.8716 16.5529 17.0638 16.0449C17.2815 15.4507 17.3991 14.8231 17.4115 14.1887C17.4476 13.3734 17.4562 13.113 17.4562 11.0363C17.4562 8.95959 17.4476 8.69916 17.4112 7.88358C17.3988 7.24933 17.2812 6.62182 17.0635 6.02774C16.8712 5.51977 16.5773 5.05844 16.2004 4.67334C15.8236 4.28824 15.3722 3.98784 14.8752 3.79142C14.2939 3.56886 13.6798 3.44868 13.0592 3.43597C12.2615 3.39844 12.0067 3.38965 9.97495 3.38965Z" fill="white"/>
</svg>
