<svg width="21" height="22" viewBox="0 0 21 22" fill="none" xmlns="http://www.w3.org/2000/svg">
<path d="M18.3007 12.2342C18.3635 11.8381 18.3948 11.4375 18.3942 11.0362C18.3942 8.99805 17.602 7.04337 16.192 5.60217C14.782 4.16098 12.8696 3.35132 10.8755 3.35132C10.4829 3.3507 10.0909 3.38267 9.70342 3.44691C8.83439 2.91483 7.81635 2.69476 6.81096 2.82164C5.80558 2.94852 4.87048 3.41507 4.15417 4.14722C3.43786 4.87936 2.98139 5.83512 2.85726 6.86273C2.73312 7.89034 2.94844 8.93088 3.46901 9.81911C3.39887 10.221 3.36134 10.628 3.35679 11.0362C3.35679 13.0744 4.14893 15.029 5.55896 16.4702C6.96899 17.9114 8.88141 18.7211 10.8755 18.7211C11.2681 18.7217 11.66 18.6897 12.0476 18.6255C12.9166 19.1576 13.9346 19.3777 14.94 19.2508C15.9454 19.1239 16.8805 18.6573 17.5968 17.9252C18.3131 17.1931 18.7696 16.2373 18.8937 15.2097C19.0179 14.1821 18.8025 13.1415 18.282 12.2533L18.3007 12.2342ZM14.4478 14.5282C14.0959 15.0254 13.611 15.4082 13.0513 15.6306C12.3608 15.9075 11.6234 16.0418 10.8817 16.0256C10.0185 16.0626 9.15969 15.8809 8.38172 15.4968C7.92816 15.2475 7.53921 14.8915 7.24706 14.4581C6.97945 14.0878 6.82735 13.6437 6.81065 13.1836C6.80999 13.0643 6.83347 12.9461 6.8796 12.8364C6.92573 12.7268 6.99352 12.628 7.07873 12.5464C7.26756 12.3822 7.51064 12.2978 7.75828 12.3106C7.96523 12.3066 8.16666 12.379 8.32561 12.5146C8.49961 12.6809 8.63397 12.8858 8.71838 13.1135C8.82654 13.3796 8.96463 13.632 9.12985 13.8655C9.29453 14.081 9.50866 14.2517 9.7533 14.3625C10.0856 14.5082 10.4457 14.5757 10.8069 14.56C11.3214 14.5855 11.8311 14.4475 12.2658 14.165C12.4326 14.0651 12.5713 13.9228 12.6685 13.752C12.7658 13.5812 12.8181 13.3876 12.8206 13.19C12.826 13.0516 12.8027 12.9137 12.7522 12.7852C12.7017 12.6567 12.6252 12.5406 12.5276 12.4445C12.3056 12.2354 12.0387 12.0826 11.7483 11.9984C11.4241 11.8901 10.9939 11.7818 10.4515 11.6607C9.82862 11.5125 9.22109 11.3033 8.63734 11.0362C8.178 10.8438 7.77297 10.5371 7.45903 10.1441C7.16127 9.73898 7.00735 9.2423 7.02262 8.73584C7.01759 8.22097 7.17985 7.71894 7.48397 7.30846C7.83134 6.86735 8.29395 6.53592 8.81813 6.35263C9.48094 6.12762 10.1774 6.02407 10.8755 6.04677C11.4217 6.03689 11.9662 6.1121 12.4902 6.26979C12.9015 6.39461 13.2878 6.59311 13.6311 6.85604C13.9013 7.06346 14.1263 7.32602 14.2919 7.62707C14.4267 7.87026 14.4996 8.14414 14.5039 8.4236C14.5031 8.54273 14.479 8.66049 14.433 8.76993C14.3869 8.87937 14.3199 8.97828 14.2358 9.06082C14.151 9.15478 14.0477 9.22944 13.9328 9.27994C13.8179 9.33044 13.6938 9.35566 13.5688 9.35394C13.3682 9.36989 13.1694 9.30596 13.0139 9.17552C12.8503 9.01441 12.7134 8.82717 12.6087 8.62114C12.4543 8.29637 12.2306 8.01112 11.954 7.78638C11.5912 7.55517 11.164 7.45218 10.7383 7.49326C10.3014 7.47443 9.86835 7.58507 9.49145 7.81187C9.35454 7.88659 9.23892 7.99632 9.15588 8.13033C9.07284 8.26435 9.02521 8.41809 9.01763 8.57653C9.0127 8.74966 9.06792 8.91898 9.1735 9.05445C9.29783 9.2017 9.45067 9.32104 9.62237 9.40492C9.80522 9.5016 9.99745 9.57848 10.1959 9.63432C10.3954 9.69167 10.7196 9.77451 11.1747 9.88284C11.7483 10.0103 12.2595 10.1505 12.7271 10.3034C13.1453 10.4336 13.544 10.6223 13.9116 10.8642C14.2324 11.0715 14.4962 11.3587 14.6785 11.6989C14.8638 12.0869 14.9496 12.5167 14.9279 12.9479C14.9335 13.513 14.7656 14.0657 14.4478 14.5282V14.5282Z" fill="white"/>
</svg>
