<svg width="21" height="22" viewBox="0 0 21 22" fill="none" xmlns="http://www.w3.org/2000/svg">
<path d="M8.23218 16.7333C9.28526 16.7401 10.3292 16.533 11.3034 16.1243C12.2776 15.7155 13.1627 15.1131 13.9073 14.3519C14.652 13.5908 15.2414 12.6862 15.6413 11.6904C16.0413 10.6947 16.2438 9.62773 16.2372 8.55137C16.2372 8.42393 16.2372 8.30286 16.2372 8.17541C16.7831 7.76663 17.2555 7.26429 17.6337 6.69069C17.1197 6.92047 16.5758 7.07286 16.019 7.14311C16.6093 6.78358 17.0523 6.21766 17.2659 5.55006C16.7157 5.88743 16.1124 6.1246 15.4828 6.251C15.0588 5.78925 14.4978 5.48319 13.8865 5.38017C13.2752 5.27715 12.6477 5.38292 12.1011 5.68111C11.5545 5.9793 11.1193 6.45329 10.8629 7.02974C10.6064 7.60619 10.5429 8.25296 10.6823 8.86998C9.56387 8.81387 8.46954 8.51761 7.47056 8.0005C6.47159 7.48338 5.59037 6.75701 4.8843 5.86867C4.52827 6.50027 4.42035 7.24655 4.58241 7.95641C4.74446 8.66628 5.16437 9.28667 5.75712 9.692C5.31985 9.67476 4.89269 9.55251 4.51024 9.33515V9.36701C4.50635 10.0271 4.7239 10.6685 5.12664 11.1845C5.52937 11.7005 6.09295 12.0599 6.72346 12.2026C6.31675 12.3145 5.89072 12.3319 5.47657 12.2536C5.65911 12.8165 6.00755 13.3079 6.47411 13.6605C6.94067 14.013 7.5025 14.2094 8.08256 14.2226C7.09079 15.0386 5.85818 15.4878 4.58505 15.4971C4.36183 15.4905 4.13913 15.4713 3.91797 15.4397C5.20659 16.2789 6.70426 16.7213 8.23218 16.7142" fill="white"/>
</svg>
